<svg width="303" height="326" viewBox="0 0 303 326" fill="none" xmlns="http://www.w3.org/2000/svg">
<path d="M168.04 203.623C161.362 203.623 156.397 198.57 156.397 192.023C156.397 185.477 161.362 180.424 168.04 180.424C172.302 180.424 176.081 182.665 177.97 186.048L172.214 189.387C171.468 187.849 169.886 186.927 167.953 186.927C165.097 186.927 162.988 188.992 162.988 192.023C162.988 195.055 165.097 197.12 167.953 197.12C169.886 197.12 171.511 196.197 172.214 194.66L177.97 197.955C176.081 201.382 172.346 203.623 168.04 203.623ZM180.623 203.008V170.934H187.213V203.008H180.623ZM195.331 179.106C193.178 179.106 191.377 177.305 191.377 175.152C191.377 172.999 193.178 171.197 195.331 171.197C197.484 171.197 199.285 172.999 199.285 175.152C199.285 177.305 197.484 179.106 195.331 179.106ZM192.036 203.008V181.039H198.626V203.008H192.036ZM213.994 203.623C207.316 203.623 202.351 198.57 202.351 192.023C202.351 185.477 207.316 180.424 213.994 180.424C218.256 180.424 222.034 182.665 223.924 186.048L218.168 189.387C217.421 187.849 215.839 186.927 213.906 186.927C211.05 186.927 208.941 188.992 208.941 192.023C208.941 195.055 211.05 197.12 213.906 197.12C215.839 197.12 217.465 196.197 218.168 194.66L223.924 197.955C222.034 201.382 218.3 203.623 213.994 203.623ZM247.666 203.008H240.196L233.167 193.298V203.008H226.576V172.252H233.167V190.661L239.757 181.039H247.446L239.45 192.023L247.666 203.008ZM171.336 224.039H178.366L170.852 245.349C168.392 252.334 164.482 255.102 158.33 254.795V248.644C161.406 248.644 162.856 247.677 163.823 244.997L155.079 224.039H162.329L167.206 237.484L171.336 224.039ZM190.481 246.623C184.022 246.623 178.838 241.57 178.838 235.023C178.838 228.477 184.022 223.424 190.481 223.424C196.94 223.424 202.124 228.477 202.124 235.023C202.124 241.57 196.94 246.623 190.481 246.623ZM190.481 240.208C193.337 240.208 195.534 238.143 195.534 235.023C195.534 231.904 193.337 229.839 190.481 229.839C187.625 229.839 185.428 231.904 185.428 235.023C185.428 238.143 187.625 240.208 190.481 240.208ZM220.044 224.039H226.634V246.008H220.044V243.943C218.857 245.568 216.66 246.623 213.761 246.623C209.323 246.623 205.544 243.459 205.544 237.528V224.039H212.135V236.561C212.135 239.285 213.848 240.559 215.957 240.559C218.374 240.559 220.044 239.153 220.044 236.034V224.039ZM238.058 227.95C238.937 225.006 241.88 223.6 244.649 223.6V231.069C241.924 230.63 238.058 231.728 238.058 236.078V246.008H231.467V224.039H238.058V227.95ZM163.735 273.454C163.735 275.958 174.543 274.289 174.543 282.417C174.543 287.47 170.149 289.623 165.404 289.623C161.011 289.623 157.671 287.953 155.958 284.394L161.67 281.143C162.241 282.812 163.471 283.735 165.404 283.735C166.986 283.735 167.777 283.252 167.777 282.373C167.777 279.957 156.968 281.231 156.968 273.63C156.968 268.841 161.011 266.424 165.58 266.424C169.139 266.424 172.302 268.006 174.148 271.125L168.524 274.157C167.909 273.015 167.03 272.224 165.58 272.224C164.438 272.224 163.735 272.663 163.735 273.454ZM183.507 280.66C184.341 282.944 186.362 283.735 188.779 283.735C190.58 283.735 192.118 283.032 192.997 282.066L198.269 285.097C196.116 288.085 192.865 289.623 188.691 289.623C181.178 289.623 176.521 284.57 176.521 278.023C176.521 271.477 181.266 266.424 188.208 266.424C194.623 266.424 199.368 271.389 199.368 278.023C199.368 278.946 199.28 279.825 199.104 280.66H183.507ZM183.375 275.739H192.821C192.118 273.19 190.141 272.268 188.164 272.268C185.659 272.268 183.99 273.498 183.375 275.739ZM209.696 270.95C210.575 268.006 213.519 266.6 216.287 266.6V274.069C213.563 273.63 209.696 274.728 209.696 279.078V289.008H203.106V267.039H209.696V270.95ZM233.384 267.039H240.677L232.549 289.008H225.079L216.951 267.039H224.245L228.814 280.967L233.384 267.039ZM246.391 265.106C244.238 265.106 242.436 263.305 242.436 261.152C242.436 258.999 244.238 257.197 246.391 257.197C248.543 257.197 250.345 258.999 250.345 261.152C250.345 263.305 248.543 265.106 246.391 265.106ZM243.095 289.008V267.039H249.686V289.008H243.095ZM265.053 289.623C258.375 289.623 253.41 284.57 253.41 278.023C253.41 271.477 258.375 266.424 265.053 266.424C269.315 266.424 273.094 268.665 274.983 272.048L269.227 275.387C268.48 273.849 266.899 272.927 264.966 272.927C262.11 272.927 260.001 274.992 260.001 278.023C260.001 281.055 262.11 283.12 264.966 283.12C266.899 283.12 268.524 282.197 269.227 280.66L274.983 283.955C273.094 287.382 269.359 289.623 265.053 289.623ZM283.094 280.66C283.929 282.944 285.95 283.735 288.366 283.735C290.168 283.735 291.706 283.032 292.584 282.066L297.857 285.097C295.704 288.085 292.452 289.623 288.278 289.623C280.765 289.623 276.108 284.57 276.108 278.023C276.108 271.477 280.853 266.424 287.795 266.424C294.21 266.424 298.955 271.389 298.955 278.023C298.955 278.946 298.867 279.825 298.692 280.66H283.094ZM282.962 275.739H292.409C291.706 273.19 289.728 272.268 287.751 272.268C285.247 272.268 283.577 273.498 282.962 275.739Z" fill="#364436"/>
<path d="M300.137 316.36V308.248C300.137 302.978 295.864 298.705 290.593 298.705H156.033C150.762 298.705 146.49 294.432 146.49 289.162V171.779C146.49 166.509 150.762 162.236 156.033 162.236H249.08C256.944 162.236 261.433 153.258 256.715 146.967L153.636 9.52878C149.97 4.64094 142.72 4.40891 138.749 9.05237L2.29074 168.624C0.812622 170.352 0.000366211 172.552 0.000366211 174.826V316.36C0.000366211 321.631 4.27301 325.903 9.54364 325.903H290.593C295.864 325.903 300.137 321.631 300.137 316.36Z" fill="#364436"/>
<path d="M219.421 36.3666L278.635 113.149C284.048 120.169 295.272 116.659 295.723 107.806L299.627 31.0233C299.904 25.5693 295.557 20.9954 290.096 20.9954H226.978C219.055 20.9954 214.582 30.0923 219.421 36.3666Z" fill="#364436"/>
</svg>
