<svg width="878" height="233" viewBox="0 0 878 233" fill="none" xmlns="http://www.w3.org/2000/svg">
<path d="M155.063 191.478C140.738 191.478 130.088 180.64 130.088 166.597C130.088 152.555 140.738 141.717 155.063 141.717C164.205 141.717 172.31 146.523 176.363 153.78L164.017 160.943C162.414 157.644 159.022 155.665 154.875 155.665C148.749 155.665 144.225 160.095 144.225 166.597C144.225 173.1 148.749 177.53 154.875 177.53C159.022 177.53 162.509 175.551 164.017 172.252L176.363 179.321C172.31 186.672 164.299 191.478 155.063 191.478ZM182.052 190.159V121.36H196.189V190.159H182.052ZM213.602 138.889C208.984 138.889 205.12 135.025 205.12 130.407C205.12 125.789 208.984 121.925 213.602 121.925C218.22 121.925 222.084 125.789 222.084 130.407C222.084 135.025 218.22 138.889 213.602 138.889ZM206.534 190.159V143.036H220.67V190.159H206.534ZM253.634 191.478C239.309 191.478 228.659 180.64 228.659 166.597C228.659 152.555 239.309 141.717 253.634 141.717C262.776 141.717 270.881 146.523 274.933 153.78L262.587 160.943C260.985 157.644 257.592 155.665 253.446 155.665C247.32 155.665 242.796 160.095 242.796 166.597C242.796 173.1 247.32 177.53 253.446 177.53C257.592 177.53 261.079 175.551 262.587 172.252L274.933 179.321C270.881 186.672 262.87 191.478 253.634 191.478ZM325.86 190.159H309.839L294.759 169.331V190.159H280.623V124.187H294.759V163.676L308.896 143.036H325.389L308.237 166.597L325.86 190.159ZM384.307 143.036H399.386L383.27 188.745C377.993 203.73 369.605 209.667 356.41 209.008V195.813C363.008 195.813 366.118 193.74 368.191 187.991L349.436 143.036H364.987L375.448 171.875L384.307 143.036ZM425.373 191.478C411.519 191.478 400.399 180.64 400.399 166.597C400.399 152.555 411.519 141.717 425.373 141.717C439.227 141.717 450.348 152.555 450.348 166.597C450.348 180.64 439.227 191.478 425.373 191.478ZM425.373 177.718C431.499 177.718 436.212 173.289 436.212 166.597C436.212 159.906 431.499 155.477 425.373 155.477C419.248 155.477 414.535 159.906 414.535 166.597C414.535 173.289 419.248 177.718 425.373 177.718ZM488.786 143.036H502.922V190.159H488.786V185.729C486.241 189.216 481.529 191.478 475.309 191.478C465.79 191.478 457.685 184.692 457.685 171.969V143.036H471.822V169.896C471.822 175.739 475.497 178.472 480.021 178.472C485.204 178.472 488.786 175.456 488.786 168.765V143.036ZM527.427 151.424C529.312 145.11 535.626 142.094 541.564 142.094V158.115C535.72 157.173 527.427 159.529 527.427 168.859V190.159H513.29V143.036H527.427V151.424ZM585.116 156.796C585.116 162.168 608.3 158.587 608.3 176.022C608.3 186.86 598.876 191.478 588.697 191.478C579.273 191.478 572.11 187.897 568.434 180.263L580.686 173.289C581.911 176.87 584.55 178.849 588.697 178.849C592.09 178.849 593.786 177.813 593.786 175.928C593.786 170.744 570.602 173.477 570.602 157.173C570.602 146.9 579.273 141.717 589.074 141.717C596.708 141.717 603.494 145.11 607.452 151.801L595.389 158.304C594.069 155.854 592.184 154.157 589.074 154.157C586.624 154.157 585.116 155.1 585.116 156.796ZM627.527 172.252C629.317 177.153 633.653 178.849 638.836 178.849C642.7 178.849 645.999 177.341 647.884 175.268L659.193 181.771C654.575 188.18 647.601 191.478 638.648 191.478C622.532 191.478 612.542 180.64 612.542 166.597C612.542 152.555 622.72 141.717 637.611 141.717C651.371 141.717 661.549 152.366 661.549 166.597C661.549 168.577 661.361 170.461 660.984 172.252H627.527ZM627.244 161.697H647.507C645.999 156.23 641.758 154.251 637.517 154.251C632.145 154.251 628.564 156.89 627.244 161.697ZM683.704 151.424C685.589 145.11 691.904 142.094 697.841 142.094V158.115C691.998 157.173 683.704 159.529 683.704 168.859V190.159H669.567V143.036H683.704V151.424ZM734.513 143.036H750.158L732.723 190.159H716.701L699.266 143.036H714.91L724.712 172.912L734.513 143.036ZM762.414 138.889C757.796 138.889 753.931 135.025 753.931 130.407C753.931 125.789 757.796 121.925 762.414 121.925C767.032 121.925 770.896 125.789 770.896 130.407C770.896 135.025 767.032 138.889 762.414 138.889ZM755.345 190.159V143.036H769.482V190.159H755.345ZM802.446 191.478C788.12 191.478 777.471 180.64 777.471 166.597C777.471 152.555 788.12 141.717 802.446 141.717C811.587 141.717 819.692 146.523 823.745 153.78L811.399 160.943C809.797 157.644 806.404 155.665 802.257 155.665C796.131 155.665 791.607 160.095 791.607 166.597C791.607 173.1 796.131 177.53 802.257 177.53C806.404 177.53 809.891 175.551 811.399 172.252L823.745 179.321C819.692 186.672 811.682 191.478 802.446 191.478ZM841.143 172.252C842.933 177.153 847.269 178.849 852.452 178.849C856.316 178.849 859.615 177.341 861.5 175.268L872.809 181.771C868.191 188.18 861.217 191.478 852.264 191.478C836.148 191.478 826.158 180.64 826.158 166.597C826.158 152.555 836.336 141.717 851.227 141.717C864.987 141.717 875.165 152.366 875.165 166.597C875.165 168.577 874.977 170.461 874.6 172.252H841.143ZM840.86 161.697H861.123C859.615 156.23 855.374 154.251 851.133 154.251C845.761 154.251 842.179 156.89 840.86 161.697Z" fill="#364436"/>
<path d="M214.139 225.713V219.926C214.139 216.165 211.09 213.117 207.33 213.117H111.325C107.565 213.117 104.516 210.068 104.516 206.308V122.559C104.516 118.799 107.565 115.75 111.325 115.75H177.711C183.322 115.75 186.525 109.345 183.158 104.856L109.615 6.7984C107 3.31108 101.826 3.14553 98.9933 6.4585L1.63474 120.308C0.580139 121.541 0.000640869 123.11 0.000640869 124.733V225.713C0.000640869 229.473 3.04904 232.522 6.80946 232.522H207.33C211.09 232.522 214.139 229.473 214.139 225.713Z" fill="#364436"/>
<path d="M156.55 25.9463L198.798 80.7283C202.66 85.7365 210.668 83.2322 210.989 76.916L213.775 22.1341C213.973 18.2429 210.871 14.9794 206.975 14.9794H161.942C156.289 14.9794 153.098 21.4699 156.55 25.9463Z" fill="#364436"/>
</svg>
